<svg xmlns="http://www.w3.org/2000/svg" xmlns:xlink="http://www.w3.org/1999/xlink" xmlns:lucid="lucid" width="1431.51" height="1242.83"><g transform="translate(-219.67577582214014 -39.99999999999986)" lucid:page-tab-id="0_0"><path d="M292.74 620.14c0 9.77-7.92 17.7-17.7 17.7-9.76 0-17.68-7.93-17.68-17.7s7.92-17.7 17.7-17.7c9.76 0 17.68 7.93 17.68 17.7z" stroke="#5e5e5e" stroke-width="3" fill="#b2d6ef"/><path d="M275.05 637.83v44.48c0 3.33 1.42 8.3 3.16 11.12l32.23 52.13m-35.38-57.24l-35.37 57.25m0-90.03h70.75" stroke="#5e5e5e" stroke-width="3" fill="none"/><path d="M239.68 608.45c0-3.3 2.68-6 6-6h58.75c3.3 0 6 2.7 6 6v153.1c0 3.3-2.7 6-6 6h-58.75c-3.32 0-6-2.7-6-6z" fill="none"/><use xlink:href="#a" transform="matrix(1,0,0,1,159.67577582214014,745.5497915701711) translate(92.10493827160494 17.77777777777778)"/><path d="M805.72 118.96c0 19.54-58.08 35.38-129.72 35.38s-129.72-15.84-129.72-35.38c0-19.54 58.08-35.38 129.72-35.38s129.72 15.84 129.72 35.38z" stroke="#5e5e5e" stroke-width="3" fill="#b2d6ef"/><use xlink:href="#b" transform="matrix(1,0,0,1,546.2806855025477,83.58499305233914) translate(108.03 38.80625)"/><path d="M1206.66 248.68c0 19.54-58.08 35.38-129.72 35.38s-129.7-15.84-129.7-35.38c0-19.54 58.06-35.38 129.7-35.38 71.64 0 129.72 15.84 129.72 35.38z" stroke="#5e5e5e" stroke-width="3" fill="#ccc"/><use xlink:href="#c" transform="matrix(1,0,0,1,947.2255673923113,213.30245484020384) translate(75.13 38.80625)"/><use xlink:href="#d" transform="matrix(1,0,0,1,947.2255673923113,213.30245484020384) translate(134.03 38.80625)"/><path d="M805.72 378.4c0 26.05-58.08 47.17-129.72 47.17s-129.72-21.12-129.72-47.17 58.08-47.17 129.72-47.17 129.72 21.12 129.72 47.17z" stroke="#5e5e5e" stroke-width="3" fill="#b2d6ef"/><use xlink:href="#e" transform="matrix(1,0,0,1,546.2806855025477,331.22742010189904) translate(38.654999999999994 50.025)"/><use xlink:href="#f" transform="matrix(1,0,0,1,546.2806855025477,331.22742010189904) translate(92.555 50.025)"/><use xlink:href="#g" transform="matrix(1,0,0,1,546.2806855025477,331.22742010189904) translate(164.45499999999998 50.025)"/><path d="M805.72 508.1c0 19.55-58.08 35.4-129.72 35.4s-129.72-15.85-129.72-35.4c0-19.52 58.08-35.36 129.72-35.36s129.72 15.84 129.72 35.37z" stroke="#5e5e5e" stroke-width="3" fill="#b2d6ef"/><use xlink:href="#h" transform="matrix(1,0,0,1,546.2806855025477,472.7373784159333) translate(72.78 38.80625)"/><use xlink:href="#i" transform="matrix(1,0,0,1,546.2806855025477,472.7373784159333) translate(116.33 38.80625)"/><path d="M805.72 637.83c0 19.54-58.08 35.38-129.72 35.38s-129.72-15.83-129.72-35.37 58.08-35.38 129.72-35.38 129.72 15.84 129.72 35.38z" stroke="#5e5e5e" stroke-width="3" fill="#b2d6ef"/><use xlink:href="#c" transform="matrix(1,0,0,1,546.2806855025477,602.4548402037981) translate(69.605 38.80625)"/><use xlink:href="#j" transform="matrix(1,0,0,1,546.2806855025477,602.4548402037981) translate(128.505 38.80625)"/><path d="M805.72 248.68c0 19.54-58.08 35.38-129.72 35.38s-129.72-15.84-129.72-35.38c0-19.54 58.08-35.38 129.72-35.38s129.72 15.84 129.72 35.38z" stroke="#5e5e5e" stroke-width="3" fill="#b2d6ef"/><use xlink:href="#k" transform="matrix(1,0,0,1,546.2806855025477,213.30245484020384) translate(99.05499999999999 38.80625)"/><path d="M805.72 767.55c0 19.54-58.08 35.38-129.72 35.38s-129.72-15.84-129.72-35.38c0-19.54 58.08-35.38 129.72-35.38S805.72 748 805.72 767.55z" stroke="#5e5e5e" stroke-width="3" fill="#b2d6ef"/><use xlink:href="#l" transform="matrix(1,0,0,1,546.2806855025477,732.1723019916627) translate(73.88000000000001 38.80625)"/><use xlink:href="#m" transform="matrix(1,0,0,1,546.2806855025477,732.1723019916627) translate(110.88000000000001 38.80625)"/><path d="M805.72 1044.67c0 22.8-58.08 41.28-129.72 41.28s-129.72-18.48-129.72-41.28 58.08-41.27 129.72-41.27 129.72 18.48 129.72 41.27z" stroke="#5e5e5e" stroke-width="3" fill="#b2d6ef"/><use xlink:href="#h" transform="matrix(1,0,0,1,546.2806855025477,1003.3997220935615) translate(40.804999999999986 45.525)"/><use xlink:href="#n" transform="matrix(1,0,0,1,546.2806855025477,1003.3997220935615) translate(84.35499999999999 45.525)"/><use xlink:href="#o" transform="matrix(1,0,0,1,546.2806855025477,1003.3997220935615) translate(151.255 45.525)"/><path d="M808.22 248.68h4.25m8.5 0h8.5m8.5 0h8.5m8.5 0h8.5m8.5 0h8.5m8.5 0h8.5m8.5 0h8.5m8.5 0h4.25" stroke="#5e5e5e" stroke-width="2" fill="none"/><path d="M808.24 249.68h-1.07v-.05l.04-.47.02-.47v-.27l-.03-.46-.03-.3h1.07z" fill="#5e5e5e"/><path d="M942.5 248.68l-14.28 4.64v-9.28z" stroke="#5e5e5e" stroke-width="2" fill="#5e5e5e"/><path d="M545.22 120.3L311.78 578.44l-1.8-.9L543.45 119.4z" fill="#5e5e5e"/><path d="M311.8 578.4l-.48.92-1.78-.9.47-.92zM545.15 116.08l-.12.5-.1.47-.06.48-.05.48-.03.5-.02.45v.26l.02.48.04.46-1.42-.72 1.76-3.43z" fill="#5e5e5e"/><use xlink:href="#p" transform="matrix(1,0,0,1,526.5326958467698,144.10700635097962) translate(0 14.222222222222223)"/><path d="M545.13 250.05L335.4 602.1l-1.73-1.02L543.4 249.03z" fill="#5e5e5e"/><path d="M335.4 602.1l-.53.87-1.7-1.03.5-.88zM544.94 246.77l-.07.48-.05.48-.03.47-.02.47v.26l.02.46.04.47-1.44-.82 1.63-2.74z" fill="#5e5e5e"/><use xlink:href="#p" transform="matrix(1,0,0,1,528.369167148657,265.5603472803522) translate(0 14.222222222222223)"/><path d="M544.98 379.8L359 625.85l-1.6-1.2L543.4 378.58z" fill="#5e5e5e"/><path d="M359.02 625.82l-.62.82-1.6-1.2.62-.82zM544.85 376.8l-.05.8-.02.8v.4l.04.8v.12l-1.46-1.1 1.5-2z" fill="#5e5e5e"/><use xlink:href="#p" transform="matrix(1,0,0,1,530.2056384506554,387.01368820972493) translate(0 14.222222222222223)"/><path d="M544.7 509.53L359 673.3l-1.3-1.5 185.67-163.77z" fill="#5e5e5e"/><path d="M359.03 673.28l-.77.68-1.32-1.5.77-.68zM544.82 507.16l-.03.48-.02.47v.26l.02.47.04.47-.17.24-1.32-1.5 1.52-1.34z" fill="#5e5e5e"/><use xlink:href="#p" transform="matrix(1,0,0,1,530.205638450544,510.3035004409848) translate(0 14.222222222222223)"/><path d="M544.13 639.1l-185.28 58.35-.6-1.9 185.28-58.37z" fill="#5e5e5e"/><path d="M358.88 697.44l-.98.3-.6-1.9.98-.3zM544.82 636.88l-.03.48-.02.46v.26l.02.47.03.32-.73.22-.6-1.9 1.33-.43z" fill="#5e5e5e"/><use xlink:href="#p" transform="matrix(1,0,0,1,530.205638450544,631.7568413703575) translate(0 14.222222222222223)"/><path d="M1208.95 248.07l3.28-2.55m6.56-5.08l6.55-5.1m6.56-5.07l6.57-5.1m6.56-5.07l6.56-5.1m6.54-5.07l6.56-5.1m6.56-5.07l6.56-5.1m6.56-5.07l6.56-5.1m6.56-5.08l6.56-5.1m6.56-5.07l6.56-5.1m6.56-5.07l6.56-5.1m6.56-5.07l6.55-5.08m6.57-5.08l3.28-2.55" stroke="#5e5e5e" stroke-width="2" fill="none"/><path d="M1209.58 248.84l-1.5 1.17.04-.37.03-.47v-1.2l-.05-.48v-.03l.26-.2z" fill="#5e5e5e"/><path d="M1365.32 126.84l-8.44 12.4-5.68-7.32z" stroke="#5e5e5e" stroke-width="2" fill="#5e5e5e"/><path d="M1628.8 124.86c0 22.8-58.07 41.27-129.7 41.27-71.65 0-129.72-18.48-129.72-41.27 0-22.8 58.07-41.28 129.7-41.28 71.65 0 129.73 18.48 129.73 41.28z" stroke="#5e5e5e" stroke-width="3" fill="#e5e5e5"/><use xlink:href="#c" transform="matrix(1,0,0,1,1369.375643857423,83.58499305233914) translate(58.629999999999995 47.270833333333336)"/><use xlink:href="#q" transform="matrix(1,0,0,1,1369.375643857423,83.58499305233914) translate(117.53 47.270833333333336)"/><path d="M1631.2 266.37c0 22.8-58.1 41.27-129.73 41.27-71.64 0-129.7-18.48-129.7-41.27 0-22.8 58.06-41.28 129.7-41.28 71.64 0 129.72 18.47 129.72 41.27z" stroke="#5e5e5e" stroke-width="3" fill="#e5e5e5"/><use xlink:href="#r" transform="matrix(1,0,0,1,1371.7554423344138,225.09495136637335) translate(57.07999999999999 45.525)"/><use xlink:href="#s" transform="matrix(1,0,0,1,1371.7554423344138,225.09495136637335) translate(124.03 45.525)"/><path d="M1631.2 407.88c0 22.8-58.1 41.27-129.73 41.27-71.64 0-129.7-18.48-129.7-41.27 0-22.8 58.06-41.28 129.7-41.28 71.64 0 129.72 18.48 129.72 41.28z" stroke="#5e5e5e" stroke-width="3" fill="#e5e5e5"/><use xlink:href="#r" transform="matrix(1,0,0,1,1371.7554423344138,366.6049096804077) translate(59.105 35.15)"/><use xlink:href="#t" transform="matrix(1,0,0,1,1371.7554423344138,366.6049096804077) translate(126.055 35.15)"/><use xlink:href="#u" transform="matrix(1,0,0,1,1371.7554423344138,366.6049096804077) translate(100.53 56.75)"/><path d="M1351.86 264.36l-3.96-.43m-7.93-.87l-7.93-.86m-7.93-.87l-7.9-.86m-7.94-.87l-7.93-.86m-7.93-.87l-7.93-.86m-7.93-.86l-7.92-.86m-7.93-.87l-7.94-.85m-7.93-.87l-7.93-.86m-7.92-.87l-7.93-.86m-7.93-.88l-3.97-.43" stroke="#5e5e5e" stroke-width="2" fill="none"/><path d="M1367.04 266.02l-14.7 3.06 1.02-9.22z" stroke="#5e5e5e" stroke-width="2" fill="#5e5e5e"/><path d="M1209.3 247.8l-.23 2-.95-.12v-.05l.03-.47v-1.2l-.04-.3z" fill="#5e5e5e"/><path d="M1357.06 394.9l-2.85-2.78m-5.7-5.6l-5.7-5.6m-5.7-5.6l-5.7-5.6m-5.7-5.6l-5.7-5.6m-5.7-5.6l-5.7-5.58m-5.7-5.6l-5.7-5.6m-5.7-5.6l-5.7-5.6m-5.7-5.6l-5.68-5.6m-5.7-5.6l-5.7-5.58m-5.7-5.6l-5.7-5.6m-5.7-5.6l-5.7-5.6m-5.7-5.6l-5.7-5.6m-5.7-5.6l-5.7-5.58m-5.7-5.6l-2.85-2.8" stroke="#5e5e5e" stroke-width="2" fill="none"/><path d="M1367.95 405.6l-13.43-6.68 6.5-6.6z" stroke="#5e5e5e" stroke-width="2" fill="#5e5e5e"/><path d="M1209.6 248.7l-1.4 1.4-.12-.1.04-.37.03-.47v-1.2l-.05-.48-.04-.32z" fill="#5e5e5e"/><path d="M1206.66 637.83c0 19.54-58.08 35.38-129.72 35.38s-129.7-15.83-129.7-35.37 58.06-35.38 129.7-35.38c71.64 0 129.72 15.84 129.72 35.38z" stroke="#5e5e5e" stroke-width="3" fill="#ccc"/><use xlink:href="#v" transform="matrix(1,0,0,1,947.2255673923113,602.4548402037981) translate(72.605 38.80625)"/><use xlink:href="#j" transform="matrix(1,0,0,1,947.2255673923113,602.4548402037981) translate(125.50500000000001 38.80625)"/><path d="M805.72 1180.3c0 19.53-58.08 35.36-129.72 35.36s-129.72-15.83-129.72-35.37c0-19.55 58.08-35.4 129.72-35.4s129.72 15.85 129.72 35.4z" stroke="#5e5e5e" stroke-width="3" fill="#b2d6ef"/><use xlink:href="#h" transform="matrix(1,0,0,1,546.2806855025477,1144.909680407596) translate(59.33 38.80625)"/><use xlink:href="#w" transform="matrix(1,0,0,1,546.2806855025477,1144.909680407596) translate(102.88 38.80625)"/><path d="M805.72 903.16c0 22.8-58.08 41.28-129.72 41.28s-129.72-18.48-129.72-41.28S604.36 861.9 676 861.9s129.72 18.47 129.72 41.26z" stroke="#5e5e5e" stroke-width="3" fill="#b2d6ef"/><use xlink:href="#x" transform="matrix(1,0,0,1,546.2806855025477,861.8897637795276) translate(58.105 45.525)"/><use xlink:href="#i" transform="matrix(1,0,0,1,546.2806855025477,861.8897637795276) translate(131.005 45.525)"/><path d="M545.12 1178.9l-1.7 1.05L310.08 792.5l1.7-1.02z" fill="#5e5e5e"/><path d="M311.82 791.5l-1.72 1.03-.53-.88 1.72-1.03zM544.82 1179.34l-.03.47-.02.48v.25l.02.47.04.48.06.47.08.5.05.18-1.64-2.7 1.45-.88z" fill="#5e5e5e"/><use xlink:href="#p" transform="matrix(1,0,0,1,526.5326958467698,1139.3187268383) translate(0 14.222222222222223)"/><path d="M544.67 901.75l-1.3 1.53-185.66-157.9 1.3-1.53z" fill="#5e5e5e"/><path d="M359.03 743.87l-1.3 1.52-.78-.67 1.3-1.53zM544.83 901.9l-.04.64-.02.62v.32l.03.62.05.43-1.5-1.27 1.3-1.52z" fill="#5e5e5e"/><use xlink:href="#p" transform="matrix(1,0,0,1,530.2056384311065,880.100653666716) translate(0 14.222222222222223)"/><path d="M543.8 766.34l-.5 1.93-184.97-46.68.5-1.95z" fill="#5e5e5e"/><path d="M358.84 719.66l-.5 1.94-.98-.25.5-1.94zM544.76 766.58l-.5 1.94-1-.25.5-1.94z" fill="#5e5e5e"/><use xlink:href="#p" transform="matrix(1,0,0,1,529.9576450919361,753.2101822997301) translate(0 14.222222222222223)"/><path d="M734.96 242.9c0-3.33 2.7-6 6-6h271.02c3.3 0 6 2.67 6 6v58.74c0 3.32-2.7 6-6 6H740.96c-3.3 0-6-2.68-6-6z" stroke="#000" stroke-opacity="0" fill="#fff" fill-opacity="0"/><use xlink:href="#y" transform="matrix(1,0,0,1,739.96062992126,241.8874478925429) translate(94.26543209876544 35.31944444444444)"/><path d="M1145.66 249.32c-2.16-2.5-1.88-6.3.63-8.46l205.28-176.94c2.5-2.17 6.3-1.9 8.46.62l38.36 44.5c2.16 2.52 1.88 6.3-.63 8.47l-205.3 176.95c-2.5 2.16-6.3 1.88-8.45-.63z" stroke="#000" stroke-opacity="0" fill="#fff" fill-opacity="0"/><use xlink:href="#y" transform="matrix(0.757478857776447,-0.6528596939784913,0.6528596939784913,0.757478857776447,1148.7942746815443,245.29539197860868) translate(94.26543209876544 35.31944444444444)"/><path d="M1192.74 217.55c2.34-2.35 6.14-2.35 8.5 0l191.63 191.64c2.34 2.33 2.34 6.13 0 8.47l-41.55 41.55c-2.34 2.34-6.14 2.34-8.5 0L1151.2 267.58c-2.35-2.35-2.35-6.15 0-8.5z" stroke="#000" stroke-opacity="0" fill="#fff" fill-opacity="0"/><use xlink:href="#y" transform="matrix(0.7071067811865476,0.7071067811865475,-0.7071067811865475,0.7071067811865476,1196.9829321834693,220.37352265206925) translate(94.26543209876544 35.31944444444444)"/><path d="M1155.37 201.16c.43-3.28 3.44-5.6 6.73-5.17l268.72 35.2c3.28.44 5.6 3.45 5.17 6.74l-7.65 58.26c-.43 3.28-3.44 5.6-6.73 5.17l-268.72-35.22c-3.28-.43-5.6-3.45-5.17-6.73z" stroke="#000" stroke-opacity="0" fill="#fff" fill-opacity="0"/><use xlink:href="#y" transform="matrix(0.991520753370744,0.12994843452351537,-0.12994843452351537,0.991520753370744,1160.4539669892645,200.82077768653858) translate(94.26543209876544 35.31944444444444)"/><path d="M544.97 1043.27l-1.6 1.2-209.54-275.52 1.6-1.2z" fill="#5e5e5e"/><path d="M335.43 767.76l-1.6 1.2-.6-.8 1.58-1.22zM544.83 1043.42l-.04.63-.02.62v.32l.03.6.06.63.03.24-1.54-2 1.48-1.13z" fill="#5e5e5e"/><use xlink:href="#p" transform="matrix(1,0,0,1,528.3691671292194,1012.4282554713146) translate(0 14.222222222222223)"/><path d="M1206.66 464.67c0 19.53-58.08 35.37-129.72 35.37s-129.7-15.84-129.7-35.37c0-19.54 58.06-35.38 129.7-35.38 71.64 0 129.72 15.83 129.72 35.37z" stroke="#5e5e5e" stroke-width="3" fill="#ccc"/><use xlink:href="#e" transform="matrix(1,0,0,1,947.2255673923113,429.28831835241334) translate(82.10499999999999 38.80625)"/><use xlink:href="#z" transform="matrix(1,0,0,1,947.2255673923113,429.28831835241334) translate(136.005 38.80625)"/><path d="M1206.66 364.43c0 19.54-58.08 35.38-129.72 35.38s-129.7-15.83-129.7-35.37 58.06-35.38 129.7-35.38c71.64 0 129.72 15.84 129.72 35.38z" stroke="#5e5e5e" stroke-width="3" fill="#ccc"/><use xlink:href="#e" transform="matrix(1,0,0,1,947.2255673923113,329.05209787997245) translate(88.05499999999999 38.80625)"/><use xlink:href="#A" transform="matrix(1,0,0,1,947.2255673923113,329.05209787997245) translate(141.95499999999998 38.80625)"/><path d="M944.73 364.43l-124.33.03" stroke="#5e5e5e" stroke-width="2" fill="none"/><path d="M945.77 363.48l-.03.47v1.19l.03.3h-1.07v-2h1.07z" fill="#5e5e5e"/><path d="M805.13 364.46l14.26-4.63v9.27z" stroke="#5e5e5e" stroke-width="2" fill="#5e5e5e"/><path d="M944.82 464.24l-128.88-60.97" stroke="#5e5e5e" stroke-width="2" fill="none"/><path d="M945.78 463.58v.13l-.04.5v1.19l.04.42-1.4-.67.85-1.8z" fill="#5e5e5e"/><path d="M802.14 396.74l14.88 1.9-3.97 8.4z" stroke="#5e5e5e" stroke-width="2" fill="#5e5e5e"/><path d="M927.22 637.83h-4.25m-8.5 0h-8.5m-8.5 0h-8.5m-8.5 0h-8.5m-8.5 0h-8.5m-8.5 0h-8.5m-8.5 0h-8.5m-8.5 0h-4.25" stroke="#5e5e5e" stroke-width="2" fill="none"/><path d="M942.5 637.83l-14.28 4.64v-9.27z" stroke="#5e5e5e" stroke-width="2" fill="#5e5e5e"/><path d="M808.24 638.83h-1.07v-.05l.04-.47.02-.46v-.25l-.03-.48-.03-.3h1.07z" fill="#5e5e5e"/><path d="M734.96 632.04c0-3.3 2.7-6 6-6h271.02c3.3 0 6 2.7 6 6v58.75c0 3.3-2.7 6-6 6H740.96c-3.3 0-6-2.7-6-6z" stroke="#000" stroke-opacity="0" fill="#fff" fill-opacity="0"/><use xlink:href="#y" transform="matrix(1,0,0,1,739.96062992126,631.0398332561371) translate(94.26543209876544 35.31944444444444)"/><path d="M1206.66 767.55c0 19.54-58.08 35.38-129.72 35.38s-129.7-15.84-129.7-35.38c0-19.54 58.06-35.38 129.7-35.38 71.64 0 129.72 15.84 129.72 35.38z" stroke="#5e5e5e" stroke-width="3" fill="#ccc"/><g><use xlink:href="#B" transform="matrix(1,0,0,1,947.2255673923113,732.1723019916627) translate(59.629999999999995 38.80625)"/><use xlink:href="#C" transform="matrix(1,0,0,1,947.2255673923113,732.1723019916627) translate(121.58 38.80625)"/><use xlink:href="#D" transform="matrix(1,0,0,1,947.2255673923113,732.1723019916627) translate(153.48000000000002 38.80625)"/></g><path d="M734.96 773.55c0-3.3 2.7-6 6-6h271.02c3.3 0 6 2.7 6 6v35.17c0 3.3-2.7 6-6 6H740.96c-3.3 0-6-2.7-6-6z" stroke="#000" stroke-opacity="0" fill="#fff" fill-opacity="0"/><g><use xlink:href="#y" transform="matrix(1,0,0,1,739.96062992126,772.5497915701712) translate(94.26543209876544 21.944444444444443)"/></g><path d="M927.22 767.55h-4.25m-8.5 0h-8.5m-8.5 0h-8.5m-8.5 0h-8.5m-8.5 0h-8.5m-8.5 0h-8.5m-8.5 0h-8.5m-8.5 0h-4.25" stroke="#5e5e5e" stroke-width="2" fill="none"/><path d="M942.5 767.55l-14.28 4.64v-9.3z" stroke="#5e5e5e" stroke-width="2" fill="#5e5e5e"/><path d="M808.24 768.55h-1.07v-.05l.04-.47.02-.47v-.26l-.03-.46-.03-.3h1.07z" fill="#5e5e5e"/><path d="M1230.25 1109.53c0 19.54-63.36 35.38-141.5 35.38-78.17 0-141.52-15.83-141.52-35.37s63.35-35.38 141.5-35.38c78.16 0 141.52 15.84 141.52 35.38z" stroke="#5e5e5e" stroke-width="3" fill="#ccc"/><g><use xlink:href="#E" transform="matrix(1,0,0,1,947.2255673923113,1074.1547012505787) translate(52.08 38.80625)"/><use xlink:href="#n" transform="matrix(1,0,0,1,947.2255673923113,1074.1547012505787) translate(112.08 38.80625)"/><use xlink:href="#F" transform="matrix(1,0,0,1,947.2255673923113,1074.1547012505787) translate(178.98000000000002 38.80625)"/></g><path d="M944.78 1109.85l-137.93 45.72" stroke="#5e5e5e" stroke-width="2" fill="none"/><path d="M945.76 1108.65l-.03.44V1109.75l.02.43.03.37-.7.23-.64-1.9 1.34-.44z" fill="#5e5e5e"/><path d="M792.36 1160.38l12.08-8.9 2.92 8.8z" stroke="#5e5e5e" stroke-width="2" fill="#5e5e5e"/><path d="M944.74 1227.3l-143.25-22.62" stroke="#5e5e5e" stroke-width="2" fill="none"/><path d="M945.78 1226.45l-.02.12-.03.45V1227.7l.02.42.03.36-1.22-.2.3-1.97z" fill="#5e5e5e"/><path d="M786.42 1202.3l14.8-2.36-1.44 9.16z" stroke="#5e5e5e" stroke-width="2" fill="#5e5e5e"/><path d="M1230.25 1227.46c0 19.54-63.36 35.37-141.5 35.37-78.17 0-141.52-15.83-141.52-35.37s63.35-35.38 141.5-35.38c78.16 0 141.52 15.84 141.52 35.38z" stroke="#5e5e5e" stroke-width="3" fill="#ccc"/><g><use xlink:href="#G" transform="matrix(1,0,0,1,947.2255673923113,1192.079666512274) translate(49.65499999999999 38.80625)"/><use xlink:href="#n" transform="matrix(1,0,0,1,947.2255673923113,1192.079666512274) translate(114.505 38.80625)"/><use xlink:href="#F" transform="matrix(1,0,0,1,947.2255673923113,1192.079666512274) translate(181.405 38.80625)"/></g><defs><path fill="#333" d="M232-93c-1 65-40 97-104 97C67 4 28-28 28-90v-158h33c8 89-33 224 67 224 102 0 64-133 71-224h33v155" id="H"/><path fill="#333" d="M135-143c-3-34-86-38-87 0 15 53 115 12 119 90S17 21 10-45l28-5c4 36 97 45 98 0-10-56-113-15-118-90-4-57 82-63 122-42 12 7 21 19 24 35" id="I"/><path fill="#333" d="M100-194c63 0 86 42 84 106H49c0 40 14 67 53 68 26 1 43-12 49-29l28 8c-11 28-37 45-77 45C44 4 14-33 15-96c1-61 26-98 85-98zm52 81c6-60-76-77-97-28-3 7-6 17-6 28h103" id="J"/><path fill="#333" d="M114-163C36-179 61-72 57 0H25l-1-190h30c1 12-1 29 2 39 6-27 23-49 58-41v29" id="K"/><g id="a"><use transform="matrix(0.06172839506172839,0,0,0.06172839506172839,0,0)" xlink:href="#H"/><use transform="matrix(0.06172839506172839,0,0,0.06172839506172839,15.987654320987653,0)" xlink:href="#I"/><use transform="matrix(0.06172839506172839,0,0,0.06172839506172839,27.098765432098766,0)" xlink:href="#J"/><use transform="matrix(0.06172839506172839,0,0,0.06172839506172839,39.44444444444444,0)" xlink:href="#K"/></g><path d="M30 0v-248h33v221h125V0H30" id="L"/><path d="M100-194c62-1 85 37 85 99 1 63-27 99-86 99S16-35 15-95c0-66 28-99 85-99zM99-20c44 1 53-31 53-75 0-43-8-75-51-75s-53 32-53 75 10 74 51 75" id="M"/><path d="M177-190C167-65 218 103 67 71c-23-6-38-20-44-43l32-5c15 47 100 32 89-28v-30C133-14 115 1 83 1 29 1 15-40 15-95c0-56 16-97 71-98 29-1 48 16 59 35 1-10 0-23 2-32h30zM94-22c36 0 50-32 50-73 0-42-14-75-50-75-39 0-46 34-46 75s6 73 46 73" id="N"/><path d="M24-231v-30h32v30H24zM24 0v-190h32V0H24" id="O"/><path d="M117-194c89-4 53 116 60 194h-32v-121c0-31-8-49-39-48C34-167 62-67 57 0H25l-1-190h30c1 10-1 24 2 32 11-22 29-35 61-36" id="P"/><g id="b"><use transform="matrix(0.05,0,0,0.05,0,0)" xlink:href="#L"/><use transform="matrix(0.05,0,0,0.05,10,0)" xlink:href="#M"/><use transform="matrix(0.05,0,0,0.05,20,0)" xlink:href="#N"/><use transform="matrix(0.05,0,0,0.05,30,0)" xlink:href="#O"/><use transform="matrix(0.05,0,0,0.05,33.95,0)" xlink:href="#P"/></g><path d="M212-179c-10-28-35-45-73-45-59 0-87 40-87 99 0 60 29 101 89 101 43 0 62-24 78-52l27 14C228-24 195 4 139 4 59 4 22-46 18-125c-6-104 99-153 187-111 19 9 31 26 39 46" id="Q"/><path d="M114-163C36-179 61-72 57 0H25l-1-190h30c1 12-1 29 2 39 6-27 23-49 58-41v29" id="R"/><path d="M100-194c63 0 86 42 84 106H49c0 40 14 67 53 68 26 1 43-12 49-29l28 8c-11 28-37 45-77 45C44 4 14-33 15-96c1-61 26-98 85-98zm52 81c6-60-76-77-97-28-3 7-6 17-6 28h103" id="S"/><path d="M141-36C126-15 110 5 73 4 37 3 15-17 15-53c-1-64 63-63 125-63 3-35-9-54-41-54-24 1-41 7-42 31l-33-3c5-37 33-52 76-52 45 0 72 20 72 64v82c-1 20 7 32 28 27v20c-31 9-61-2-59-35zM48-53c0 20 12 33 32 33 41-3 63-29 60-74-43 2-92-5-92 41" id="T"/><path d="M59-47c-2 24 18 29 38 22v24C64 9 27 4 27-40v-127H5v-23h24l9-43h21v43h35v23H59v120" id="U"/><g id="c"><use transform="matrix(0.05,0,0,0.05,0,0)" xlink:href="#Q"/><use transform="matrix(0.05,0,0,0.05,12.950000000000001,0)" xlink:href="#R"/><use transform="matrix(0.05,0,0,0.05,18.900000000000002,0)" xlink:href="#S"/><use transform="matrix(0.05,0,0,0.05,28.900000000000002,0)" xlink:href="#T"/><use transform="matrix(0.05,0,0,0.05,38.900000000000006,0)" xlink:href="#U"/><use transform="matrix(0.05,0,0,0.05,43.900000000000006,0)" xlink:href="#S"/></g><path d="M30-248c87 1 191-15 191 75 0 78-77 80-158 76V0H30v-248zm33 125c57 0 124 11 124-50 0-59-68-47-124-48v98" id="V"/><path d="M101-234c-31-9-42 10-38 44h38v23H63V0H32v-167H5v-23h27c-7-52 17-82 69-68v24" id="W"/><path d="M24 0v-261h32V0H24" id="X"/><g id="d"><use transform="matrix(0.05,0,0,0.05,0,0)" xlink:href="#V"/><use transform="matrix(0.05,0,0,0.05,12,0)" xlink:href="#R"/><use transform="matrix(0.05,0,0,0.05,17.95,0)" xlink:href="#M"/><use transform="matrix(0.05,0,0,0.05,27.950000000000003,0)" xlink:href="#W"/><use transform="matrix(0.05,0,0,0.05,32.95,0)" xlink:href="#O"/><use transform="matrix(0.05,0,0,0.05,36.900000000000006,0)" xlink:href="#X"/><use transform="matrix(0.05,0,0,0.05,40.85000000000001,0)" xlink:href="#S"/></g><path d="M185-189c-5-48-123-54-124 2 14 75 158 14 163 119 3 78-121 87-175 55-17-10-28-26-33-46l33-7c5 56 141 63 141-1 0-78-155-14-162-118-5-82 145-84 179-34 5 7 8 16 11 25" id="Y"/><path d="M206 0h-36l-40-164L89 0H53L-1-190h32L70-26l43-164h34l41 164 42-164h31" id="Z"/><path d="M115-194c55 1 70 41 70 98S169 2 115 4C84 4 66-9 55-30l1 105H24l-1-265h31l2 30c10-21 28-34 59-34zm-8 174c40 0 45-34 45-75s-6-73-45-74c-42 0-51 32-51 76 0 43 10 73 51 73" id="aa"/><g id="e"><use transform="matrix(0.05,0,0,0.05,0,0)" xlink:href="#Y"/><use transform="matrix(0.05,0,0,0.05,12,0)" xlink:href="#Z"/><use transform="matrix(0.05,0,0,0.05,24.950000000000003,0)" xlink:href="#O"/><use transform="matrix(0.05,0,0,0.05,28.900000000000002,0)" xlink:href="#aa"/><use transform="matrix(0.05,0,0,0.05,38.900000000000006,0)" xlink:href="#S"/></g><path d="M127-220V0H93v-220H8v-28h204v28h-85" id="ab"/><path d="M106-169C34-169 62-67 57 0H25v-261h32l-1 103c12-21 28-36 61-36 89 0 53 116 60 194h-32v-121c2-32-8-49-39-48" id="ac"/><path d="M84 4C-5 8 30-112 23-190h32v120c0 31 7 50 39 49 72-2 45-101 50-169h31l1 190h-30c-1-10 1-25-2-33-11 22-28 36-60 37" id="ad"/><g id="f"><use transform="matrix(0.05,0,0,0.05,0,0)" xlink:href="#ab"/><use transform="matrix(0.05,0,0,0.05,10.950000000000001,0)" xlink:href="#ac"/><use transform="matrix(0.05,0,0,0.05,20.950000000000003,0)" xlink:href="#R"/><use transform="matrix(0.05,0,0,0.05,26.900000000000002,0)" xlink:href="#M"/><use transform="matrix(0.05,0,0,0.05,36.900000000000006,0)" xlink:href="#ad"/><use transform="matrix(0.05,0,0,0.05,46.900000000000006,0)" xlink:href="#N"/><use transform="matrix(0.05,0,0,0.05,56.900000000000006,0)" xlink:href="#ac"/></g><path d="M240 0l2-218c-23 76-54 145-80 218h-23L58-218 59 0H30v-248h44l77 211c21-75 51-140 76-211h43V0h-30" id="ae"/><path d="M108 0H70L1-190h34L89-25l56-165h34" id="af"/><path d="M135-143c-3-34-86-38-87 0 15 53 115 12 119 90S17 21 10-45l28-5c4 36 97 45 98 0-10-56-113-15-118-90-4-57 82-63 122-42 12 7 21 19 24 35" id="ag"/><g id="g"><use transform="matrix(0.05,0,0,0.05,0,0)" xlink:href="#ae"/><use transform="matrix(0.05,0,0,0.05,14.950000000000001,0)" xlink:href="#M"/><use transform="matrix(0.05,0,0,0.05,24.950000000000003,0)" xlink:href="#af"/><use transform="matrix(0.05,0,0,0.05,33.95,0)" xlink:href="#O"/><use transform="matrix(0.05,0,0,0.05,37.900000000000006,0)" xlink:href="#S"/><use transform="matrix(0.05,0,0,0.05,47.900000000000006,0)" xlink:href="#ag"/></g><path d="M137 0h-34L2-248h35l83 218 83-218h36" id="ah"/><g id="h"><use transform="matrix(0.05,0,0,0.05,0,0)" xlink:href="#ah"/><use transform="matrix(0.05,0,0,0.05,11.65,0)" xlink:href="#O"/><use transform="matrix(0.05,0,0,0.05,15.600000000000001,0)" xlink:href="#S"/><use transform="matrix(0.05,0,0,0.05,25.6,0)" xlink:href="#Z"/></g><g id="i"><use transform="matrix(0.05,0,0,0.05,0,0)" xlink:href="#ab"/><use transform="matrix(0.05,0,0,0.05,10.950000000000001,0)" xlink:href="#ac"/><use transform="matrix(0.05,0,0,0.05,20.950000000000003,0)" xlink:href="#S"/><use transform="matrix(0.05,0,0,0.05,30.950000000000003,0)" xlink:href="#T"/><use transform="matrix(0.05,0,0,0.05,40.95,0)" xlink:href="#U"/><use transform="matrix(0.05,0,0,0.05,45.95,0)" xlink:href="#R"/><use transform="matrix(0.05,0,0,0.05,51.900000000000006,0)" xlink:href="#S"/><use transform="matrix(0.05,0,0,0.05,61.900000000000006,0)" xlink:href="#ag"/></g><g id="j"><use transform="matrix(0.05,0,0,0.05,0,0)" xlink:href="#ab"/><use transform="matrix(0.05,0,0,0.05,10.950000000000001,0)" xlink:href="#ac"/><use transform="matrix(0.05,0,0,0.05,20.950000000000003,0)" xlink:href="#S"/><use transform="matrix(0.05,0,0,0.05,30.950000000000003,0)" xlink:href="#T"/><use transform="matrix(0.05,0,0,0.05,40.95,0)" xlink:href="#U"/><use transform="matrix(0.05,0,0,0.05,45.95,0)" xlink:href="#R"/><use transform="matrix(0.05,0,0,0.05,51.900000000000006,0)" xlink:href="#S"/></g><path d="M16-82v-28h88v28H16" id="ai"/><g id="k"><use transform="matrix(0.05,0,0,0.05,0,0)" xlink:href="#Y"/><use transform="matrix(0.05,0,0,0.05,12,0)" xlink:href="#O"/><use transform="matrix(0.05,0,0,0.05,15.949999999999998,0)" xlink:href="#N"/><use transform="matrix(0.05,0,0,0.05,25.950000000000003,0)" xlink:href="#P"/><use transform="matrix(0.05,0,0,0.05,35.95,0)" xlink:href="#ai"/><use transform="matrix(0.05,0,0,0.05,41.900000000000006,0)" xlink:href="#ad"/><use transform="matrix(0.05,0,0,0.05,51.900000000000006,0)" xlink:href="#aa"/></g><path d="M205 0l-28-72H64L36 0H1l101-248h38L239 0h-34zm-38-99l-47-123c-12 45-31 82-46 123h93" id="aj"/><path d="M85-194c31 0 48 13 60 33l-1-100h32l1 261h-30c-2-10 0-23-3-31C134-8 116 4 85 4 32 4 16-35 15-94c0-66 23-100 70-100zm9 24c-40 0-46 34-46 75 0 40 6 74 45 74 42 0 51-32 51-76 0-42-9-74-50-73" id="ak"/><g id="l"><use transform="matrix(0.05,0,0,0.05,0,0)" xlink:href="#aj"/><use transform="matrix(0.05,0,0,0.05,12,0)" xlink:href="#ak"/><use transform="matrix(0.05,0,0,0.05,22,0)" xlink:href="#ak"/></g><path d="M266 0h-40l-56-210L115 0H75L2-248h35L96-30l15-64 43-154h32l59 218 59-218h35" id="al"/><path d="M96-169c-40 0-48 33-48 73s9 75 48 75c24 0 41-14 43-38l32 2c-6 37-31 61-74 61-59 0-76-41-82-99-10-93 101-131 147-64 4 7 5 14 7 22l-32 3c-4-21-16-35-41-35" id="am"/><g id="m"><use transform="matrix(0.05,0,0,0.05,0,0)" xlink:href="#al"/><use transform="matrix(0.05,0,0,0.05,16.3,0)" xlink:href="#T"/><use transform="matrix(0.05,0,0,0.05,26.3,0)" xlink:href="#U"/><use transform="matrix(0.05,0,0,0.05,31.3,0)" xlink:href="#am"/><use transform="matrix(0.05,0,0,0.05,40.3,0)" xlink:href="#ac"/><use transform="matrix(0.05,0,0,0.05,50.3,0)" xlink:href="#S"/><use transform="matrix(0.05,0,0,0.05,60.29999999999999,0)" xlink:href="#R"/><use transform="matrix(0.05,0,0,0.05,66.25,0)" xlink:href="#ag"/></g><g id="n"><use transform="matrix(0.05,0,0,0.05,0,0)" xlink:href="#ab"/><use transform="matrix(0.05,0,0,0.05,10.950000000000001,0)" xlink:href="#ac"/><use transform="matrix(0.05,0,0,0.05,20.950000000000003,0)" xlink:href="#S"/><use transform="matrix(0.05,0,0,0.05,30.950000000000003,0)" xlink:href="#T"/><use transform="matrix(0.05,0,0,0.05,40.95,0)" xlink:href="#U"/><use transform="matrix(0.05,0,0,0.05,45.95,0)" xlink:href="#R"/><use transform="matrix(0.05,0,0,0.05,51.900000000000006,0)" xlink:href="#S"/></g><g id="o"><use transform="matrix(0.05,0,0,0.05,0,0)" xlink:href="#ae"/><use transform="matrix(0.05,0,0,0.05,14.950000000000001,0)" xlink:href="#T"/><use transform="matrix(0.05,0,0,0.05,24.950000000000003,0)" xlink:href="#U"/><use transform="matrix(0.05,0,0,0.05,29.950000000000003,0)" xlink:href="#am"/><use transform="matrix(0.05,0,0,0.05,38.95,0)" xlink:href="#ac"/><use transform="matrix(0.05,0,0,0.05,48.95,0)" xlink:href="#S"/><use transform="matrix(0.05,0,0,0.05,58.95,0)" xlink:href="#ag"/></g><path d="M232-93c-1 65-40 97-104 97C67 4 28-28 28-90v-158h33c8 89-33 224 67 224 102 0 64-133 71-224h33v155" id="an"/><path d="M210-169c-67 3-38 105-44 169h-31v-121c0-29-5-50-35-48C34-165 62-65 56 0H25l-1-190h30c1 10-1 24 2 32 10-44 99-50 107 0 11-21 27-35 58-36 85-2 47 119 55 194h-31v-121c0-29-5-49-35-48" id="ao"/><g id="q"><use transform="matrix(0.05,0,0,0.05,0,0)" xlink:href="#an"/><use transform="matrix(0.05,0,0,0.05,12.950000000000001,0)" xlink:href="#ag"/><use transform="matrix(0.05,0,0,0.05,21.950000000000003,0)" xlink:href="#S"/><use transform="matrix(0.05,0,0,0.05,31.950000000000003,0)" xlink:href="#R"/><use transform="matrix(0.05,0,0,0.05,37.900000000000006,0)" xlink:href="#P"/><use transform="matrix(0.05,0,0,0.05,47.900000000000006,0)" xlink:href="#T"/><use transform="matrix(0.05,0,0,0.05,57.900000000000006,0)" xlink:href="#ao"/><use transform="matrix(0.05,0,0,0.05,72.85000000000001,0)" xlink:href="#S"/></g><g id="r"><use transform="matrix(0.05,0,0,0.05,0,0)" xlink:href="#Q"/><use transform="matrix(0.05,0,0,0.05,12.950000000000001,0)" xlink:href="#ac"/><use transform="matrix(0.05,0,0,0.05,22.950000000000003,0)" xlink:href="#M"/><use transform="matrix(0.05,0,0,0.05,32.95,0)" xlink:href="#M"/><use transform="matrix(0.05,0,0,0.05,42.95,0)" xlink:href="#ag"/><use transform="matrix(0.05,0,0,0.05,51.95,0)" xlink:href="#S"/></g><g id="s"><use transform="matrix(0.05,0,0,0.05,0,0)" xlink:href="#V"/><use transform="matrix(0.05,0,0,0.05,12,0)" xlink:href="#T"/><use transform="matrix(0.05,0,0,0.05,22,0)" xlink:href="#ag"/><use transform="matrix(0.05,0,0,0.05,31,0)" xlink:href="#ag"/><use transform="matrix(0.05,0,0,0.05,40,0)" xlink:href="#Z"/><use transform="matrix(0.05,0,0,0.05,52.95,0)" xlink:href="#M"/><use transform="matrix(0.05,0,0,0.05,62.95,0)" xlink:href="#R"/><use transform="matrix(0.05,0,0,0.05,68.9,0)" xlink:href="#ak"/></g><path d="M63-220v92h138v28H63V0H30v-248h175v28H63" id="ap"/><g id="t"><use transform="matrix(0.05,0,0,0.05,0,0)" xlink:href="#ap"/><use transform="matrix(0.05,0,0,0.05,10.950000000000001,0)" xlink:href="#T"/><use transform="matrix(0.05,0,0,0.05,20.950000000000003,0)" xlink:href="#af"/><use transform="matrix(0.05,0,0,0.05,29.950000000000003,0)" xlink:href="#M"/><use transform="matrix(0.05,0,0,0.05,39.95,0)" xlink:href="#ad"/><use transform="matrix(0.05,0,0,0.05,49.95,0)" xlink:href="#R"/><use transform="matrix(0.05,0,0,0.05,55.900000000000006,0)" xlink:href="#O"/><use transform="matrix(0.05,0,0,0.05,59.85,0)" xlink:href="#U"/><use transform="matrix(0.05,0,0,0.05,64.85000000000001,0)" xlink:href="#S"/></g><path d="M143 4C61 4 22-44 18-125c-5-107 100-154 193-111 17 8 29 25 37 43l-32 9c-13-25-37-40-76-40-61 0-88 39-88 99 0 61 29 100 91 101 35 0 62-11 79-27v-45h-74v-28h105v86C228-13 192 4 143 4" id="aq"/><g id="u"><use transform="matrix(0.05,0,0,0.05,0,0)" xlink:href="#aq"/><use transform="matrix(0.05,0,0,0.05,14,0)" xlink:href="#S"/><use transform="matrix(0.05,0,0,0.05,24,0)" xlink:href="#P"/><use transform="matrix(0.05,0,0,0.05,34,0)" xlink:href="#R"/><use transform="matrix(0.05,0,0,0.05,39.95,0)" xlink:href="#S"/><use transform="matrix(0.05,0,0,0.05,49.95,0)" xlink:href="#ag"/></g><path d="M190 0L58-211 59 0H30v-248h39L202-35l-2-213h31V0h-41" id="ar"/><g id="v"><use transform="matrix(0.05,0,0,0.05,0,0)" xlink:href="#ar"/><use transform="matrix(0.05,0,0,0.05,12.950000000000001,0)" xlink:href="#T"/><use transform="matrix(0.05,0,0,0.05,22.950000000000003,0)" xlink:href="#ao"/><use transform="matrix(0.05,0,0,0.05,37.900000000000006,0)" xlink:href="#S"/></g><g id="w"><use transform="matrix(0.05,0,0,0.05,0,0)" xlink:href="#ar"/><use transform="matrix(0.05,0,0,0.05,12.950000000000001,0)" xlink:href="#M"/><use transform="matrix(0.05,0,0,0.05,22.950000000000003,0)" xlink:href="#U"/><use transform="matrix(0.05,0,0,0.05,27.950000000000003,0)" xlink:href="#O"/><use transform="matrix(0.05,0,0,0.05,31.900000000000002,0)" xlink:href="#W"/><use transform="matrix(0.05,0,0,0.05,36.900000000000006,0)" xlink:href="#O"/><use transform="matrix(0.05,0,0,0.05,40.85000000000001,0)" xlink:href="#am"/><use transform="matrix(0.05,0,0,0.05,49.85000000000001,0)" xlink:href="#T"/><use transform="matrix(0.05,0,0,0.05,59.85,0)" xlink:href="#U"/><use transform="matrix(0.05,0,0,0.05,64.85000000000001,0)" xlink:href="#O"/><use transform="matrix(0.05,0,0,0.05,68.80000000000001,0)" xlink:href="#M"/><use transform="matrix(0.05,0,0,0.05,78.80000000000001,0)" xlink:href="#P"/><use transform="matrix(0.05,0,0,0.05,88.80000000000001,0)" xlink:href="#ag"/></g><path d="M233-177c-1 41-23 64-60 70L243 0h-38l-65-103H63V0H30v-248c88 3 205-21 203 71zM63-129c60-2 137 13 137-47 0-61-80-42-137-45v92" id="as"/><g id="x"><use transform="matrix(0.05,0,0,0.05,0,0)" xlink:href="#as"/><use transform="matrix(0.05,0,0,0.05,12.950000000000001,0)" xlink:href="#S"/><use transform="matrix(0.05,0,0,0.05,22.950000000000003,0)" xlink:href="#P"/><use transform="matrix(0.05,0,0,0.05,32.95,0)" xlink:href="#T"/><use transform="matrix(0.05,0,0,0.05,42.95,0)" xlink:href="#ao"/><use transform="matrix(0.05,0,0,0.05,57.900000000000006,0)" xlink:href="#S"/></g><path fill="#333" d="M18-100v-36l175-74v27L42-118l151 64v27" id="at"/><path fill="#333" d="M24-231v-30h32v30H24zM24 0v-190h32V0H24" id="au"/><path fill="#333" d="M117-194c89-4 53 116 60 194h-32v-121c0-31-8-49-39-48C34-167 62-67 57 0H25l-1-190h30c1 10-1 24 2 32 11-22 29-35 61-36" id="av"/><path fill="#333" d="M96-169c-40 0-48 33-48 73s9 75 48 75c24 0 41-14 43-38l32 2c-6 37-31 61-74 61-59 0-76-41-82-99-10-93 101-131 147-64 4 7 5 14 7 22l-32 3c-4-21-16-35-41-35" id="aw"/><path fill="#333" d="M24 0v-261h32V0H24" id="ax"/><path fill="#333" d="M84 4C-5 8 30-112 23-190h32v120c0 31 7 50 39 49 72-2 45-101 50-169h31l1 190h-30c-1-10 1-25-2-33-11 22-28 36-60 37" id="ay"/><path fill="#333" d="M85-194c31 0 48 13 60 33l-1-100h32l1 261h-30c-2-10 0-23-3-31C134-8 116 4 85 4 32 4 16-35 15-94c0-66 23-100 70-100zm9 24c-40 0-46 34-46 75 0 40 6 74 45 74 42 0 51-32 51-76 0-42-9-74-50-73" id="az"/><path fill="#333" d="M18-27v-27l151-64-151-65v-27l175 74v36" id="aA"/><g id="y"><use transform="matrix(0.04320987654320987,0,0,0.04320987654320987,0,0)" xlink:href="#at"/><use transform="matrix(0.04320987654320987,0,0,0.04320987654320987,9.074074074074073,0)" xlink:href="#at"/><use transform="matrix(0.04320987654320987,0,0,0.04320987654320987,18.148148148148145,0)" xlink:href="#au"/><use transform="matrix(0.04320987654320987,0,0,0.04320987654320987,21.561728395061724,0)" xlink:href="#av"/><use transform="matrix(0.04320987654320987,0,0,0.04320987654320987,30.2037037037037,0)" xlink:href="#aw"/><use transform="matrix(0.04320987654320987,0,0,0.04320987654320987,37.981481481481474,0)" xlink:href="#ax"/><use transform="matrix(0.04320987654320987,0,0,0.04320987654320987,41.395061728395056,0)" xlink:href="#ay"/><use transform="matrix(0.04320987654320987,0,0,0.04320987654320987,50.037037037037024,0)" xlink:href="#az"/><use transform="matrix(0.04320987654320987,0,0,0.04320987654320987,58.67901234567901,0)" xlink:href="#J"/><use transform="matrix(0.04320987654320987,0,0,0.04320987654320987,67.32098765432097,0)" xlink:href="#aA"/><use transform="matrix(0.04320987654320987,0,0,0.04320987654320987,76.39506172839505,0)" xlink:href="#aA"/></g><g id="z"><use transform="matrix(0.05,0,0,0.05,0,0)" xlink:href="#as"/><use transform="matrix(0.05,0,0,0.05,12.950000000000001,0)" xlink:href="#O"/><use transform="matrix(0.05,0,0,0.05,16.900000000000002,0)" xlink:href="#N"/><use transform="matrix(0.05,0,0,0.05,26.900000000000002,0)" xlink:href="#ac"/><use transform="matrix(0.05,0,0,0.05,36.900000000000006,0)" xlink:href="#U"/></g><g id="A"><use transform="matrix(0.05,0,0,0.05,0,0)" xlink:href="#L"/><use transform="matrix(0.05,0,0,0.05,10,0)" xlink:href="#S"/><use transform="matrix(0.05,0,0,0.05,20,0)" xlink:href="#W"/><use transform="matrix(0.05,0,0,0.05,25,0)" xlink:href="#U"/></g><g id="B"><use transform="matrix(0.05,0,0,0.05,0,0)" xlink:href="#Y"/><use transform="matrix(0.05,0,0,0.05,12,0)" xlink:href="#S"/><use transform="matrix(0.05,0,0,0.05,22,0)" xlink:href="#T"/><use transform="matrix(0.05,0,0,0.05,32,0)" xlink:href="#R"/><use transform="matrix(0.05,0,0,0.05,37.95,0)" xlink:href="#am"/><use transform="matrix(0.05,0,0,0.05,46.95,0)" xlink:href="#ac"/></g><g id="C"><use transform="matrix(0.05,0,0,0.05,0,0)" xlink:href="#ap"/><use transform="matrix(0.05,0,0,0.05,10.950000000000001,0)" xlink:href="#M"/><use transform="matrix(0.05,0,0,0.05,20.950000000000003,0)" xlink:href="#R"/></g><g id="D"><use transform="matrix(0.05,0,0,0.05,0,0)" xlink:href="#an"/><use transform="matrix(0.05,0,0,0.05,12.950000000000001,0)" xlink:href="#ag"/><use transform="matrix(0.05,0,0,0.05,21.950000000000003,0)" xlink:href="#S"/><use transform="matrix(0.05,0,0,0.05,31.950000000000003,0)" xlink:href="#R"/><use transform="matrix(0.05,0,0,0.05,37.900000000000006,0)" xlink:href="#ag"/></g><g id="E"><use transform="matrix(0.05,0,0,0.05,0,0)" xlink:href="#aj"/><use transform="matrix(0.05,0,0,0.05,12,0)" xlink:href="#am"/><use transform="matrix(0.05,0,0,0.05,21,0)" xlink:href="#am"/><use transform="matrix(0.05,0,0,0.05,30,0)" xlink:href="#S"/><use transform="matrix(0.05,0,0,0.05,40,0)" xlink:href="#aa"/><use transform="matrix(0.05,0,0,0.05,50,0)" xlink:href="#U"/></g><path d="M33 0v-248h34V0H33" id="aB"/><g id="F"><use transform="matrix(0.05,0,0,0.05,0,0)" xlink:href="#aB"/><use transform="matrix(0.05,0,0,0.05,5,0)" xlink:href="#P"/><use transform="matrix(0.05,0,0,0.05,15,0)" xlink:href="#af"/><use transform="matrix(0.05,0,0,0.05,24,0)" xlink:href="#O"/><use transform="matrix(0.05,0,0,0.05,27.950000000000003,0)" xlink:href="#U"/><use transform="matrix(0.05,0,0,0.05,32.95,0)" xlink:href="#S"/><use transform="matrix(0.05,0,0,0.05,42.95,0)" xlink:href="#ag"/></g><path d="M30-248c118-7 216 8 213 122C240-48 200 0 122 0H30v-248zM63-27c89 8 146-16 146-99s-60-101-146-95v194" id="aC"/><g id="G"><use transform="matrix(0.05,0,0,0.05,0,0)" xlink:href="#aC"/><use transform="matrix(0.05,0,0,0.05,12.950000000000001,0)" xlink:href="#S"/><use transform="matrix(0.05,0,0,0.05,22.950000000000003,0)" xlink:href="#am"/><use transform="matrix(0.05,0,0,0.05,31.950000000000003,0)" xlink:href="#X"/><use transform="matrix(0.05,0,0,0.05,35.900000000000006,0)" xlink:href="#O"/><use transform="matrix(0.05,0,0,0.05,39.85000000000001,0)" xlink:href="#P"/><use transform="matrix(0.05,0,0,0.05,49.85000000000001,0)" xlink:href="#S"/></g></defs></g></svg>